<svg width="30" height="30" viewBox="0 0 30 30" fill="none" xmlns="http://www.w3.org/2000/svg">
<path d="M23.5 17.5385V14.5769C23.5 12.474 21.7875 10.7692 19.675 10.7692H17.975C17.2708 10.7692 16.7 10.201 16.7 9.5V7.80769C16.7 5.70476 14.9875 4 12.875 4H10.75M15 14.1538V20.9231M18.4 17.5385H11.6M13.3 4H7.775C7.07084 4 6.5 4.56825 6.5 5.26923V24.7308C6.5 25.4317 7.07084 26 7.775 26H22.225C22.9292 26 23.5 25.4317 23.5 24.7308V14.1538C23.5 8.54603 18.9333 4 13.3 4Z" stroke="#9DA1AA" stroke-width="2" stroke-linecap="round" stroke-linejoin="round"/>
</svg>
