<svg width="30" height="30" viewBox="0 0 30 30" fill="none" xmlns="http://www.w3.org/2000/svg">
<path d="M3 7.91667C3 7.13426 3.61991 6.5 4.38462 6.5H11.7692C12.5339 6.5 13.1538 7.13426 13.1538 7.91667V12.6389C13.1538 13.4213 12.5339 14.0556 11.7692 14.0556H4.38462C3.61991 14.0556 3 13.4213 3 12.6389V7.91667Z" stroke="#3B82F6" stroke-width="2" stroke-linecap="round" stroke-linejoin="round"/>
<path d="M17.7692 9.80556C17.7692 9.02315 18.3891 8.38889 19.1538 8.38889H25.6154C26.3801 8.38889 27 9.02315 27 9.80556V20.1944C27 20.9768 26.3801 21.6111 25.6154 21.6111H19.1538C18.3891 21.6111 17.7692 20.9768 17.7692 20.1944V9.80556Z" stroke="#3B82F6" stroke-width="2" stroke-linecap="round" stroke-linejoin="round"/>
<path d="M4.84615 19.25C4.84615 18.4676 5.46607 17.8333 6.23077 17.8333H12.6923C13.457 17.8333 14.0769 18.4676 14.0769 19.25V22.0833C14.0769 22.8657 13.457 23.5 12.6923 23.5H6.23077C5.46607 23.5 4.84615 22.8657 4.84615 22.0833V19.25Z" stroke="#3B82F6" stroke-width="2" stroke-linecap="round" stroke-linejoin="round"/>
</svg>
