<svg width="30" height="30" viewBox="0 0 30 30" fill="none" xmlns="http://www.w3.org/2000/svg">
<path d="M12.2897 9.27408C13.7867 7.9642 16.2139 7.9642 17.7109 9.27408C19.2079 10.584 19.2079 12.7077 17.7109 14.0176C17.4503 14.2456 17.1616 14.4339 16.8545 14.5825C15.9017 15.0436 15.0003 15.8581 15.0003 16.9167V17.875M26.5 15C26.5 21.3513 21.3513 26.5 15 26.5C8.64873 26.5 3.5 21.3513 3.5 15C3.5 8.64873 8.64873 3.5 15 3.5C21.3513 3.5 26.5 8.64873 26.5 15ZM15 21.7083H15.0096V21.7179H15V21.7083Z" stroke="#9DA1AA" stroke-width="2" stroke-linecap="round" stroke-linejoin="round"/>
</svg>
