<svg width="30" height="30" viewBox="0 0 30 30" fill="none" xmlns="http://www.w3.org/2000/svg">
<path d="M21.0214 5.19931C21.7721 5.6614 22.4812 6.21771 23.1317 6.86827C23.7823 7.51883 24.3386 8.22794 24.8007 8.97863M21.0214 5.19931L16.6146 10.4874M21.0214 5.19931C17.3404 2.93356 12.6596 2.93356 8.97863 5.19931M24.8007 8.97863L19.5126 13.3854M24.8007 8.97863C27.0664 12.6596 27.0664 17.3404 24.8007 21.0214M19.5126 13.3854C19.2815 12.7379 18.9067 12.1302 18.3882 11.6118C17.8698 11.0933 17.2621 10.7185 16.6146 10.4874M19.5126 13.3854C19.8847 14.4274 19.8847 15.5726 19.5126 16.6146M16.6146 10.4874C15.5726 10.1153 14.4274 10.1153 13.3854 10.4874M19.5126 16.6146C19.2815 17.2621 18.9067 17.8698 18.3882 18.3882C17.8698 18.9067 17.2621 19.2815 16.6146 19.5126M19.5126 16.6146L24.8007 21.0214M24.8007 21.0214C24.3386 21.7721 23.7823 22.4812 23.1317 23.1317C22.4812 23.7823 21.7721 24.3386 21.0214 24.8007M21.0214 24.8007L16.6146 19.5126M21.0214 24.8007C17.3404 27.0664 12.6596 27.0664 8.97863 24.8007M16.6146 19.5126C15.5726 19.8847 14.4274 19.8847 13.3854 19.5126M13.3854 19.5126C12.7379 19.2815 12.1302 18.9067 11.6118 18.3882C11.0933 17.8698 10.7185 17.2621 10.4874 16.6146M13.3854 19.5126L8.97863 24.8007M8.97863 24.8007C8.22794 24.3386 7.51883 23.7823 6.86827 23.1317C6.21771 22.4812 5.6614 21.7721 5.19931 21.0214M5.19931 21.0214L10.4874 16.6146M5.19931 21.0214C2.93356 17.3404 2.93356 12.6596 5.19931 8.97863M10.4874 16.6146C10.1153 15.5726 10.1153 14.4274 10.4874 13.3854M10.4874 13.3854C10.7185 12.7379 11.0933 12.1302 11.6118 11.6118C12.1302 11.0933 12.7379 10.7185 13.3854 10.4874M10.4874 13.3854L5.19931 8.97863M13.3854 10.4874L8.97863 5.19931M8.97863 5.19931C8.22794 5.6614 7.51883 6.21771 6.86827 6.86827C6.21771 7.51883 5.6614 8.22794 5.19931 8.97863" stroke="#9DA1AA" stroke-width="2" stroke-linecap="round" stroke-linejoin="round"/>
</svg>
