<svg width="30" height="30" viewBox="0 0 30 30" fill="none" xmlns="http://www.w3.org/2000/svg">
<path d="M19.2308 7.38462C21.1 7.38462 22.6154 8.89996 22.6154 10.7692M26 10.7692C26 14.5078 22.9693 17.5385 19.2308 17.5385C18.8351 17.5385 18.4473 17.5045 18.0702 17.4394C17.435 17.3296 16.7623 17.4685 16.3065 17.9243L13.3077 20.9231H10.7692V23.4615H8.23077V26H4V22.8207C4 22.1475 4.26744 21.5018 4.7435 21.0257L12.0757 13.6935C12.5315 13.2377 12.6704 12.565 12.5606 11.9298C12.4955 11.5527 12.4615 11.1649 12.4615 10.7692C12.4615 7.03069 15.4922 4 19.2308 4C22.9693 4 26 7.03069 26 10.7692Z" stroke="#9DA1AA" stroke-width="2" stroke-linecap="round" stroke-linejoin="round"/>
</svg>
