<svg width="30" height="30" viewBox="0 0 30 30" fill="none" xmlns="http://www.w3.org/2000/svg">
<path d="M3.5 22.0168C9.94849 22.0168 16.1955 22.8644 22.1321 24.4523C22.9896 24.6817 23.8462 24.0552 23.8462 23.1819V22.0168M5.26923 5.5V6.36931C5.26923 6.84941 4.87317 7.23861 4.38462 7.23861H3.5M3.5 7.23861V6.80396C3.5 6.0838 4.09408 5.5 4.82692 5.5H24.7308M3.5 7.23861V17.6703M24.7308 5.5V6.36931C24.7308 6.84941 25.1268 7.23861 25.6154 7.23861H26.5M24.7308 5.5H25.1731C25.9059 5.5 26.5 6.0838 26.5 6.80396V18.105C26.5 18.8251 25.9059 19.4089 25.1731 19.4089H24.7308M26.5 17.6703H25.6154C25.1268 17.6703 24.7308 18.0595 24.7308 18.5396V19.4089M24.7308 19.4089H5.26923M5.26923 19.4089H4.82692C4.09408 19.4089 3.5 18.8251 3.5 18.105V17.6703M5.26923 19.4089V18.5396C5.26923 18.0595 4.87318 17.6703 4.38462 17.6703H3.5M18.5385 12.4545C18.5385 14.3749 16.9542 15.9317 15 15.9317C13.0458 15.9317 11.4615 14.3749 11.4615 12.4545C11.4615 10.534 13.0458 8.97723 15 8.97723C16.9542 8.97723 18.5385 10.534 18.5385 12.4545ZM22.0769 12.4545H22.0858V12.4632H22.0769V12.4545ZM7.92308 12.4545H7.93192V12.4632H7.92308V12.4545Z" stroke="#9DA1AA" stroke-width="2" stroke-linecap="round" stroke-linejoin="round"/>
</svg>
