<svg width="19" height="20" viewBox="0 0 19 20" fill="none" xmlns="http://www.w3.org/2000/svg">
<path fill-rule="evenodd" clip-rule="evenodd" d="M8.5434 0C7.59242 0 6.78082 0.679641 6.62448 1.60693L6.43911 2.70639C6.4182 2.8304 6.32049 2.97415 6.13134 3.06407C5.77436 3.23377 5.43262 3.42953 5.10862 3.64883C4.93588 3.76574 4.76124 3.77764 4.64203 3.73349L3.58458 3.34188C2.69404 3.01208 1.69283 3.36706 1.21734 4.18119L0.260741 5.81906C-0.214751 6.63319 -0.0251344 7.66781 0.709066 8.26529L1.58115 8.97498C1.67932 9.05488 1.75621 9.21008 1.74055 9.41613C1.72588 9.60899 1.71843 9.80371 1.71843 10C1.71843 10.1964 1.72589 10.3912 1.74056 10.5841C1.75624 10.7901 1.67935 10.9454 1.58116 11.0253L0.709066 11.735C-0.0251346 12.3324 -0.214751 13.3671 0.260741 14.1812L1.21734 15.8191C1.69283 16.6332 2.69404 16.9882 3.58458 16.6584L4.64226 16.2667C4.76147 16.2225 4.93611 16.2344 5.10884 16.3513C5.43277 16.5706 5.77445 16.7663 6.13134 16.9359C6.32049 17.0259 6.4182 17.1696 6.43911 17.2936L6.62448 18.3931C6.78082 19.3204 7.59242 20 8.5434 20H10.4566C11.4076 20 12.2192 19.3204 12.3755 18.3931L12.5609 17.2936C12.5818 17.1696 12.6795 17.0259 12.8687 16.9359C13.2256 16.7662 13.5674 16.5705 13.8914 16.3512C14.0641 16.2343 14.2388 16.2224 14.358 16.2665L15.4154 16.6581C16.306 16.9879 17.3072 16.6329 17.7827 15.8188L18.7393 14.1809C19.2147 13.3668 19.0251 12.3322 18.2909 11.7347L17.4189 11.025C17.3207 10.9451 17.2438 10.7899 17.2595 10.5839C17.2741 10.391 17.2816 10.1963 17.2816 10C17.2816 9.80363 17.2741 9.60884 17.2594 9.41591C17.2438 9.20985 17.3207 9.05465 17.4188 8.97475L18.2909 8.26505C19.0251 7.66756 19.2147 6.63294 18.7393 5.81881L17.7827 4.18094C17.3072 3.36681 16.306 3.01183 15.4154 3.34163L14.3577 3.73333C14.2385 3.77748 14.0639 3.76558 13.8912 3.64868C13.5672 3.42945 13.2256 3.23373 12.8687 3.06407C12.6795 2.97415 12.5818 2.8304 12.5609 2.70639L12.3755 1.60692C12.2192 0.679639 11.4076 0 10.4566 0H8.5434ZM9.50013 13.8462C11.6489 13.8462 13.3909 12.1242 13.3909 10C13.3909 7.87583 11.6489 6.15385 9.50013 6.15385C7.3513 6.15385 5.60934 7.87583 5.60934 10C5.60934 12.1242 7.3513 13.8462 9.50013 13.8462Z" fill="#3B82F6"/>
</svg>
