<svg width="20" height="20" viewBox="0 0 20 20" fill="none" xmlns="http://www.w3.org/2000/svg">
<path fill-rule="evenodd" clip-rule="evenodd" d="M17.64 6.3571L14.5003 8.9735C14.6537 9.64866 14.6537 10.3513 14.5003 11.0265L17.64 13.6429C18.7354 11.3454 18.7354 8.6546 17.64 6.3571ZM13.6429 17.64L11.0265 14.5003C10.3513 14.6537 9.64866 14.6537 8.9735 14.5003L6.3571 17.64C8.6546 18.7354 11.3454 18.7354 13.6429 17.64ZM2.36002 13.6429L5.4997 11.0265C5.34626 10.3513 5.34626 9.64866 5.4997 8.9735L2.36002 6.3571C1.26461 8.6546 1.26461 11.3454 2.36002 13.6429ZM6.3571 2.36002L8.9735 5.4997C9.64866 5.34626 10.3513 5.34626 11.0265 5.4997L13.6429 2.36002C11.3454 1.26461 8.6546 1.26461 6.3571 2.36002ZM15.2364 1.47815C15.8897 1.88026 16.5062 2.36403 17.0711 2.92893C17.636 3.49384 18.1197 4.11031 18.5218 4.76357C20.4927 7.96545 20.4927 12.0346 18.5218 15.2364C18.1197 15.8897 17.636 16.5062 17.0711 17.0711C16.5062 17.636 15.8897 18.1197 15.2364 18.5218C12.0346 20.4927 7.96545 20.4927 4.76357 18.5218C4.11031 18.1197 3.49384 17.636 2.92893 17.0711C2.36403 16.5062 1.88026 15.8897 1.47815 15.2364C-0.492717 12.0346 -0.492718 7.96545 1.47815 4.76357C1.88026 4.11031 2.36403 3.49384 2.92893 2.92893C3.49384 2.36403 4.11031 1.88026 4.76357 1.47815C7.96545 -0.492717 12.0346 -0.492717 15.2364 1.47815ZM12.1757 7.82429C11.8418 7.49039 11.4521 7.25033 11.0374 7.10227C10.3682 6.86335 9.6318 6.86335 8.96262 7.10227C8.54793 7.25033 8.15819 7.49039 7.82429 7.82429C7.49039 8.15819 7.25033 8.54793 7.10227 8.96261C6.86335 9.6318 6.86335 10.3682 7.10227 11.0374C7.25033 11.4521 7.49039 11.8418 7.82429 12.1757C8.15819 12.5096 8.54793 12.7497 8.96262 12.8977C9.6318 13.1367 10.3682 13.1367 11.0374 12.8977C11.4521 12.7497 11.8418 12.5096 12.1757 12.1757C12.5096 11.8418 12.7497 11.4521 12.8977 11.0374C13.1367 10.3682 13.1367 9.6318 12.8977 8.96261C12.7497 8.54793 12.5096 8.15819 12.1757 7.82429Z" fill="#3B82F6"/>
</svg>
