<svg width="50" height="50" viewBox="0 0 50 50" fill="none" xmlns="http://www.w3.org/2000/svg">
<path d="M28.6502 31.211C30.9658 30.9363 33.1987 30.3919 35.3166 29.6101C33.5605 27.6608 32.4916 25.0802 32.4916 22.25V21.3935C32.4918 21.3734 32.4919 21.3534 32.4919 21.3333C32.4919 17.2832 29.2086 14 25.1585 14C21.1084 14 17.8252 17.2832 17.8252 21.3333L17.825 22.25C17.825 25.0802 16.7561 27.6608 15 29.6101C17.118 30.392 19.3511 30.9364 21.6668 31.211M28.6502 31.211C27.5052 31.3468 26.3399 31.4167 25.1583 31.4167C23.9768 31.4167 22.8117 31.3468 21.6668 31.211M28.6502 31.211C28.7638 31.5647 28.8252 31.9419 28.8252 32.3333C28.8252 34.3584 27.1836 36 25.1585 36C23.1335 36 21.4919 34.3584 21.4919 32.3333C21.4919 31.9419 21.5532 31.5647 21.6668 31.211" stroke="#9DA1AA" stroke-width="1.8" stroke-linecap="round" stroke-linejoin="round"/>
<rect x="26" y="10" width="10" height="10" rx="5" fill="#EF4444"/>
</svg>
