<svg width="26" height="26" viewBox="0 0 26 26" fill="none" xmlns="http://www.w3.org/2000/svg">
<path d="M10.6196 4.94005C10.709 4.39759 11.1732 4 11.7172 4H14.2828C14.8268 4 15.291 4.39759 15.3804 4.94005L15.5916 6.2211C15.6533 6.59514 15.9005 6.90671 16.2287 7.09036C16.302 7.13142 16.3746 7.17383 16.4462 7.21757C16.7677 7.41384 17.1587 7.47486 17.5104 7.34166L18.714 6.88578C19.2234 6.69284 19.796 6.90051 20.068 7.37677L21.3509 9.62321C21.6228 10.0995 21.5144 10.7047 21.0944 11.0543L20.101 11.8811C19.8117 12.1219 19.6683 12.4937 19.6752 12.8725C19.676 12.9149 19.6764 12.9574 19.6764 13C19.6764 13.0426 19.676 13.0851 19.6752 13.1275C19.6683 13.5063 19.8117 13.8781 20.101 14.1189L21.0944 14.9457C21.5144 15.2953 21.6228 15.9005 21.3509 16.3768L20.068 18.6232C19.796 19.0995 19.2234 19.3071 18.714 19.1142L17.5104 18.6583C17.1587 18.5251 16.7677 18.5862 16.4462 18.7824C16.3746 18.8262 16.302 18.8686 16.2287 18.9096C15.9005 19.0933 15.6533 19.4049 15.5916 19.7789L15.3804 21.0599C15.291 21.6024 14.8268 22 14.2828 22H11.7172C11.1732 22 10.709 21.6024 10.6196 21.0599L10.4084 19.7789C10.3467 19.4049 10.0995 19.0933 9.77133 18.9096C9.69796 18.8686 9.62544 18.8262 9.5538 18.7824C9.23231 18.5862 8.84129 18.5251 8.48961 18.6583L7.28601 19.1142C6.77663 19.3072 6.20395 19.0995 5.93198 18.6232L4.64914 16.3768C4.37717 15.9005 4.48562 15.2953 4.90557 14.9457L5.89897 14.1189C6.18829 13.8781 6.33171 13.5063 6.32477 13.1275C6.32399 13.0851 6.3236 13.0426 6.3236 13C6.3236 12.9574 6.32399 12.9149 6.32477 12.8725C6.33171 12.4937 6.18829 12.1219 5.89897 11.8811L4.90557 11.0543C4.48562 10.7047 4.37717 10.0995 4.64914 9.62323L5.93198 7.37679C6.20395 6.90052 6.77663 6.69286 7.28601 6.88579L8.48959 7.34167C8.84128 7.47487 9.2323 7.41385 9.55379 7.21758C9.62543 7.17384 9.69796 7.13142 9.77133 7.09036C10.0995 6.90671 10.3467 6.59514 10.4084 6.2211L10.6196 4.94005Z" stroke="#9DA1AA" stroke-width="1.5" stroke-linecap="round" stroke-linejoin="round"/>
<path d="M15.9671 12.9999C15.9671 14.6568 14.6386 15.9999 12.9998 15.9999C11.361 15.9999 10.0325 14.6568 10.0325 12.9999C10.0325 11.3431 11.361 9.99992 12.9998 9.99992C14.6386 9.99992 15.9671 11.3431 15.9671 12.9999Z" stroke="#9DA1AA" stroke-width="1.5" stroke-linecap="round" stroke-linejoin="round"/>
</svg>
