<svg width="26" height="26" viewBox="0 0 26 26" fill="none" xmlns="http://www.w3.org/2000/svg">
<path d="M10.8789 8.51884C12.0505 7.49372 13.95 7.49372 15.1215 8.51884C16.2931 9.54397 16.2931 11.206 15.1215 12.2312C14.9176 12.4096 14.6917 12.5569 14.4513 12.6733C13.7056 13.0341 13.0002 13.6716 13.0002 14.5V15.25M22 13C22 17.9706 17.9706 22 13 22C8.02944 22 4 17.9706 4 13C4 8.02944 8.02944 4 13 4C17.9706 4 22 8.02944 22 13ZM13 18.25H13.0075V18.2575H13V18.25Z" stroke="#9DA1AA" stroke-width="1.5" stroke-linecap="round" stroke-linejoin="round"/>
</svg>
