<svg width="70" height="62" viewBox="0 0 70 62" fill="none" xmlns="http://www.w3.org/2000/svg">
<path d="M0.148589 34.0271C1.28953 41.8626 7.62814 48.2888 15.7697 49.8671C16.798 50.0785 19.4743 50.2758 20.2772 50.2053C25.996 49.7403 36.3913 67.2586 52.5336 60.4096C58.9567 57.6757 70 31.7159 70 31.5468C70 31.3777 58.2525 4.11329 51.8293 1.39343C36.4054 -5.11732 25.7847 13.3252 20.4885 12.8883C18.5587 12.7333 15.4176 13.1701 13.2343 13.8889C10.403 14.8331 7.83943 16.3973 5.6843 18.483C3.36014 20.7378 1.88114 23.0631 0.909224 25.9521C0.0781617 28.4324 -0.203554 31.5468 0.148589 34.0271Z" fill="#EF4444" fill-opacity="0.6"/>
</svg>
